<svg id="eDgpoQrYMmA1" xmlns="http://www.w3.org/2000/svg" xmlns:xlink="http://www.w3.org/1999/xlink" viewBox="0 0 1920 1080" shape-rendering="geometricPrecision" text-rendering="geometricPrecision" project-id="51f7e70729af412b812e5d3adeb9af7d" export-id="ba783e79dc64423b81782c64b1d7a53b" cached="false"><rect width="997.766856" height="1002.847548" rx="0" ry="0" transform="matrix(1 0 0 0.933543 343.534273 75.046168)" stroke-width="0"/><ellipse rx="192" ry="108" transform="matrix(.846593 0 0 1.361747 887.044632 651.285946)" fill="#2200f4" stroke-width="0"/><ellipse rx="192" ry="108" transform="matrix(.846593 0 0 1.361828 799.034982 448.070488)" fill="#2200f4" stroke-width="0"/><ellipse rx="192" ry="108" transform="matrix(.325691 0 0 0.461064 887.044632 648.969844)" stroke-width="0"/><ellipse rx="192" ry="108" transform="matrix(.325691 0 0 0.482509 799.034982 447.47406)" stroke-width="0"/><line x1="0" y1="-50.952955" x2="0" y2="50.952956" transform="translate(799.034982 251.768396)" fill="none" stroke="#3f5787" stroke-width="3"/><line x1="0" y1="-52.110977" x2="0" y2="52.110977" transform="translate(799.034982 447.474065)" fill="none" stroke="#3f5787" stroke-width="3"/><line x1="0" y1="-49.794934" x2="0" y2="49.794933" transform="translate(799.034982 648.969844)" fill="none" stroke="#3f5787" stroke-width="3"/><line x1="0" y1="-50.952955" x2="0" y2="50.952956" transform="translate(799.034982 849.307599)" fill="none" stroke="#3f5787" stroke-width="3"/><line x1="0" y1="-50.952955" x2="0" y2="50.952956" transform="translate(887.044632 251.768397)" fill="none" stroke="#3f5787" stroke-width="3"/><line x1="0" y1="-52.110977" x2="0" y2="52.110977" transform="translate(887.044632 447.474065)" fill="none" stroke="#3f5787" stroke-width="3"/><line x1="0" y1="-49.794934" x2="0" y2="49.794933" transform="translate(887.044632 648.969719)" fill="none" stroke="#3f5787" stroke-width="3"/><line x1="0" y1="-50.952955" x2="0" y2="50.952956" transform="translate(887.044632 849.307599)" fill="none" stroke="#3f5787" stroke-width="3"/><g transform="translate(.000009 0.000023)"><line x1="0" y1="25.476478" x2="0" y2="-25.476478" transform="translate(1072.328106 277.244874)" fill="none" stroke="#3f5787" stroke-width="3"/><line x1="0" y1="-26.055488" x2="0" y2="26.055489" transform="translate(1072.328106 421.418577)" fill="none" stroke="#3f5787" stroke-width="3"/><line x1="-63.991038" y1="-49.224624" x2="63.991038" y2="49.224624" transform="translate(1136.319144 300.993022)" fill="none" stroke="#3f5787" stroke-width="3"/><line x1="63.991038" y1="-48.628207" x2="-63.991038" y2="48.628207" transform="translate(1136.319144 398.845853)" fill="none" stroke="#3f5787" stroke-width="3"/><path d="M1072.328106,395.363088v52.110972l127.982076-97.256414-127.982076-98.449248v50.952955l-273.293124-1.728341v94.370077l273.293124-.000001Z" transform="translate(0 0.596417)" fill="#2200f4" stroke="#3f5787" stroke-width="3.84" stroke-opacity="0"/></g><g transform="matrix(-.005523-.999985 0.999985-.005523 501.869768 1278.834873)"><line x1="0" y1="25.476478" x2="0" y2="-25.476478" transform="translate(1072.328106 277.244874)" fill="none" stroke="#3f5787" stroke-width="3"/><line x1="0" y1="-26.055488" x2="0" y2="26.055489" transform="translate(1072.328106 421.418577)" fill="none" stroke="#3f5787" stroke-width="3"/><line x1="-63.991038" y1="-49.224624" x2="63.991038" y2="49.224624" transform="translate(1136.319144 300.993022)" fill="none" stroke="#3f5787" stroke-width="3"/><line x1="63.991038" y1="-48.628207" x2="-63.991038" y2="48.628207" transform="translate(1136.319144 398.845853)" fill="none" stroke="#3f5787" stroke-width="3"/><path d="M1072.328106,395.363088v52.110972l127.982076-97.256414-127.982076-98.449248v50.952955l-273.293124-1.728341v94.370077l273.293124-.000001Z" transform="translate(0 0.596417)" fill="#f40000" stroke="#3f5787" stroke-width="3.84" stroke-opacity="0"/></g><g transform="matrix(-.999944-.01059 0.01059-.999944 1681.289522 1109.524016)"><line x1="0" y1="25.476478" x2="0" y2="-25.476478" transform="translate(1072.328106 277.244874)" fill="none" stroke="#3f5787" stroke-width="3"/><line x1="0" y1="-26.055488" x2="0" y2="26.055489" transform="translate(1072.328106 421.418577)" fill="none" stroke="#3f5787" stroke-width="3"/><line x1="-63.991038" y1="-49.224624" x2="63.991038" y2="49.224624" transform="translate(1136.319144 300.993022)" fill="none" stroke="#3f5787" stroke-width="3"/><line x1="63.991038" y1="-48.628207" x2="-63.991038" y2="48.628207" transform="translate(1136.319144 398.845853)" fill="none" stroke="#3f5787" stroke-width="3"/><path d="M1072.328106,395.363088v52.110972l127.982076-97.256414-127.982076-98.449248v50.952955l-273.293124-1.728341v94.370077l273.293124-.000001Z" transform="translate(0 0.596417)" fill="#2200f4" stroke="#3f5787" stroke-width="3.84" stroke-opacity="0"/></g><line x1="-44.004825" y1="-0.000005" x2="44.004825" y2="0.000005" transform="translate(843.039807 499.585037)" fill="none" stroke="#3f5787" stroke-width="3"/><line x1="-44.004825" y1="0" x2="44.004825" y2="0" transform="translate(843.039807 599.174964)" fill="none" stroke="#3f5787" stroke-width="3"/><path d="" fill="none" stroke="#3f5787" stroke-width="3.84"/><path d="" fill="none" stroke="#3f5787" stroke-width="3.84"/><path d="M887.044632,395.959529h104.061996q-41.529324,119.42474-41.529324,119.573953t-62.532672-15.948451" transform="matrix(.922664 0 0 1 72.624353 0.000002)" stroke="#3f5787" stroke-width="3.84" stroke-opacity="0"/><g transform="translate(.000001 0)"><g transform="matrix(-.007964 0.999968-.999968-.007964 1200.585938-196.147477)"><line x1="0" y1="25.476478" x2="0" y2="-25.476478" transform="translate(1072.328106 277.244874)" fill="none" stroke="#3f5787" stroke-width="3"/><line x1="0" y1="-26.055488" x2="0" y2="26.055489" transform="translate(1072.328106 421.418577)" fill="none" stroke="#3f5787" stroke-width="3"/><line x1="-63.991038" y1="-49.224624" x2="63.991038" y2="49.224624" transform="translate(1136.319144 300.993022)" fill="none" stroke="#3f5787" stroke-width="3"/><line x1="63.991038" y1="-48.628207" x2="-63.991038" y2="48.628207" transform="translate(1136.319144 398.845853)" fill="none" stroke="#3f5787" stroke-width="3"/><path d="M1072.328106,395.363088v52.110972l127.982076-97.256414-127.982076-98.449248v50.952955l-273.293124-1.728341v94.370077l273.293124-.000001Z" transform="translate(0 0.596417)" fill="#f40000" stroke="#3f5787" stroke-width="3.84" stroke-opacity="0"/></g></g><path d="M887.044632,395.959529h104.061996q-41.529324,119.42474-41.529324,119.573953t-62.532672-15.948451" transform="matrix(-.999983-.005803 0.005832-1.005033 1683.058042 1105.926406)" stroke="#3f5787" stroke-width="3.84" stroke-opacity="0"/><rect width="192" height="108" rx="0" ry="0" transform="matrix(.490781 0 0 1.618524 798.337616 455.746526)" fill="#f40000" stroke-width="0" stroke-opacity="0"/><rect width="95.045092" height="99.70856" rx="0" ry="0" transform="translate(799.034991 499.585032)" fill="#2200f4" stroke-width="0" stroke-opacity="0"/></svg>
